<svg id="Layer_1" data-name="Layer 1" xmlns="http://www.w3.org/2000/svg" viewBox="0 0 375.85 35.36"><defs><style>.cls-1,.cls-2{fill:#fff;}.cls-2{stroke:#fff;stroke-miterlimit:10;stroke-width:0.5px;}</style></defs><path class="cls-1" d="M118.08,116.49v5.31H107.64v29.4h-6.46V121.8H90.69v-5.31Z" transform="translate(-90.69 -116.47)"/><path class="cls-1" d="M151.46,151.2H145V136H128.68V151.2h-6.5V116.49h6.5v14.93H145V116.49h6.5Z" transform="translate(-90.69 -116.47)"/><path class="cls-1" d="M165.74,151.2h-6.48V116.49h6.48Z" transform="translate(-90.69 -116.47)"/><path class="cls-1" d="M177.64,116.53a1.59,1.59,0,0,1,.52.14,1.82,1.82,0,0,1,.44.32,3.36,3.36,0,0,1,.48.54l18.22,23.2c-.06-.56-.11-1.1-.13-1.64s0-1,0-1.5v-21.1h5.69V151.2h-3.34a3,3,0,0,1-1.27-.24,2.86,2.86,0,0,1-1-.87L179.08,127c0,.52.09,1,.11,1.53s0,1,0,1.38V151.2h-5.69V116.49h3.38A6.73,6.73,0,0,1,177.64,116.53Z" transform="translate(-90.69 -116.47)"/><path class="cls-1" d="M216.5,131H218a4.07,4.07,0,0,0,1.51-.25,2.61,2.61,0,0,0,1-.81l9.57-12.12a3.61,3.61,0,0,1,1.26-1.07,4.06,4.06,0,0,1,1.67-.3h5.57l-11.69,14.43a10.8,10.8,0,0,1-1.06,1.13,4.61,4.61,0,0,1-1.08.74,4.52,4.52,0,0,1,1.43.82,7.74,7.74,0,0,1,1.24,1.34l12.05,16.25H233.8a3.47,3.47,0,0,1-1.71-.33,2.67,2.67,0,0,1-1-.94l-9.82-12.82a2.93,2.93,0,0,0-1.08-.9,4.25,4.25,0,0,0-1.7-.28h-2V151.2H210V116.47h6.46Z" transform="translate(-90.69 -116.47)"/><path class="cls-2" d="M279.62,151.2H279V134.4H255.43v16.8h-.58V117.6h.58v16.27H279V117.6h.58Z" transform="translate(-90.69 -116.47)"/><path class="cls-2" d="M313.54,150.72a4.59,4.59,0,0,1,.17.48h.66l-14-33.6h-.47l-14,33.6h.57a4.92,4.92,0,0,1,.3-.61l13-31.22a3.89,3.89,0,0,0,.2-.49l.19-.49.17.49c.06.16.13.32.21.49l13.05,31.35Z" transform="translate(-90.69 -116.47)"/><path class="cls-2" d="M321.19,150.67h17.13v.53H320.61V117.6h.58Z" transform="translate(-90.69 -116.47)"/><path class="cls-2" d="M368.18,146.66a.28.28,0,0,1,.17.07l.21.2a18.73,18.73,0,0,1-2.27,1.88,13.53,13.53,0,0,1-2.65,1.46,15.91,15.91,0,0,1-3.17,1,18.71,18.71,0,0,1-3.81.35,15.92,15.92,0,0,1-6.24-1.19,14.1,14.1,0,0,1-4.95-3.42,15.72,15.72,0,0,1-3.25-5.41,20.88,20.88,0,0,1-1.16-7.16,20.33,20.33,0,0,1,1.16-7,16,16,0,0,1,3.29-5.44,14.52,14.52,0,0,1,5.09-3.5,16.86,16.86,0,0,1,6.54-1.24,20.56,20.56,0,0,1,3.29.24,13.67,13.67,0,0,1,2.73.74,12.72,12.72,0,0,1,2.41,1.23,24,24,0,0,1,2.32,1.73l-.07.12a.29.29,0,0,1-.22.12.87.87,0,0,1-.51-.28c-.22-.18-.51-.41-.87-.68s-.8-.57-1.33-.89a11.69,11.69,0,0,0-1.9-.89,15.58,15.58,0,0,0-2.55-.68,18.14,18.14,0,0,0-3.3-.28,16.25,16.25,0,0,0-6.25,1.17,13.89,13.89,0,0,0-4.9,3.33,15.27,15.27,0,0,0-3.2,5.27,19.77,19.77,0,0,0-1.16,6.94,20.21,20.21,0,0,0,1.14,7,15.47,15.47,0,0,0,3.16,5.25,13.5,13.5,0,0,0,4.76,3.3,15.45,15.45,0,0,0,6,1.14,20.15,20.15,0,0,0,3.65-.29,14,14,0,0,0,2.94-.84,12.81,12.81,0,0,0,2.47-1.35,24.43,24.43,0,0,0,2.27-1.84C368.07,146.7,368.13,146.66,368.18,146.66Z" transform="translate(-90.69 -116.47)"/><path class="cls-2" d="M385.94,136.92V151.2h-.58V136.92L372.83,117.6h.48a.37.37,0,0,1,.34.19L385,135.31l.38.59a6.22,6.22,0,0,1,.32.56,2.82,2.82,0,0,1,.31-.56c.13-.19.26-.38.39-.59l11.3-17.52a.37.37,0,0,1,.34-.19h.48Z" transform="translate(-90.69 -116.47)"/><path class="cls-2" d="M432.16,134.4a21,21,0,0,1-1.14,7.15,15.61,15.61,0,0,1-3.19,5.39,13.91,13.91,0,0,1-4.91,3.41,17.38,17.38,0,0,1-12.59,0,14,14,0,0,1-4.89-3.41,15.61,15.61,0,0,1-3.19-5.39,23,23,0,0,1,0-14.29,15.61,15.61,0,0,1,3.19-5.41,14,14,0,0,1,4.89-3.44,16,16,0,0,1,6.28-1.2,16.31,16.31,0,0,1,6.31,1.19,13.68,13.68,0,0,1,4.91,3.42,15.7,15.7,0,0,1,3.19,5.41A21.15,21.15,0,0,1,432.16,134.4Zm-.62,0a21.18,21.18,0,0,0-1.09-7,15.32,15.32,0,0,0-3.06-5.26,13.17,13.17,0,0,0-4.72-3.3,15.84,15.84,0,0,0-6.06-1.14,15.6,15.6,0,0,0-6,1.14,13.26,13.26,0,0,0-4.72,3.3,15.38,15.38,0,0,0-3.09,5.26,22.43,22.43,0,0,0,0,14,15.28,15.28,0,0,0,3.09,5.24,13.34,13.34,0,0,0,4.72,3.28,15.42,15.42,0,0,0,6,1.14,15.65,15.65,0,0,0,6.06-1.14,13.25,13.25,0,0,0,4.72-3.28,15.23,15.23,0,0,0,3.06-5.24A21,21,0,0,0,431.54,134.4Z" transform="translate(-90.69 -116.47)"/><path class="cls-2" d="M442.05,117.79l23.78,32.38a2.11,2.11,0,0,1,0-.26V117.6h.48v33.6h-.14a.34.34,0,0,1-.27-.17L442,118.51c0,.1,0,.2,0,.3V151.2h-.48V117.6h.19A.37.37,0,0,1,442.05,117.79Z" transform="translate(-90.69 -116.47)"/></svg>